<svg width="11" height="14" viewBox="0 0 11 14" fill="none" xmlns="http://www.w3.org/2000/svg">
<path d="M6.68835 13.75L1.45113 8.5V7H4.17682C4.86474 7 5.45868 6.78425 5.95865 6.35275C6.4581 5.92175 6.75974 5.3875 6.86358 4.75H0.672363V3.25H6.62995C6.40929 2.8125 6.08169 2.453 5.64714 2.1715C5.21207 1.8905 4.72196 1.75 4.17682 1.75H0.672363V0.25H10.0176V1.75H7.48659C7.6683 1.9625 7.83055 2.19375 7.97332 2.44375C8.1161 2.69375 8.22642 2.9625 8.3043 3.25H10.0176V4.75H8.44058C8.33675 5.8125 7.88247 6.703 7.07774 7.4215C6.27301 8.1405 5.30604 8.5 4.17682 8.5H3.61222L8.84944 13.75H6.68835Z" fill="#1C1B1F"/>
</svg>
