<svg width="11" height="15" viewBox="0 0 11 15" fill="none" xmlns="http://www.w3.org/2000/svg">
<path d="M5.5 9.47368C4.84524 9.47368 4.28869 9.24342 3.83036 8.7829C3.37202 8.32237 3.14286 7.76316 3.14286 7.10526V2.36842C3.14286 1.71053 3.37202 1.15132 3.83036 0.69079C4.28869 0.230263 4.84524 0 5.5 0C6.15476 0 6.71131 0.230263 7.16964 0.69079C7.62798 1.15132 7.85714 1.71053 7.85714 2.36842V7.10526C7.85714 7.76316 7.62798 8.32237 7.16964 8.7829C6.71131 9.24342 6.15476 9.47368 5.5 9.47368ZM4.71429 15V12.5724C3.35238 12.3882 2.22619 11.7763 1.33571 10.7368C0.445238 9.69737 0 8.48684 0 7.10526H1.57143C1.57143 8.19737 1.9546 9.12816 2.72093 9.89763C3.48674 10.6676 4.41309 11.0526 5.5 11.0526C6.5869 11.0526 7.51352 10.6676 8.27986 9.89763C9.04567 9.12816 9.42857 8.19737 9.42857 7.10526H11C11 8.48684 10.5548 9.69737 9.66428 10.7368C8.77381 11.7763 7.64762 12.3882 6.28571 12.5724V15H4.71429ZM5.5 7.89474C5.72262 7.89474 5.90936 7.81895 6.06021 7.66737C6.21055 7.51632 6.28571 7.32895 6.28571 7.10526V2.36842C6.28571 2.14474 6.21055 1.95711 6.06021 1.80553C5.90936 1.65447 5.72262 1.57895 5.5 1.57895C5.27738 1.57895 5.0909 1.65447 4.94057 1.80553C4.78971 1.95711 4.71429 2.14474 4.71429 2.36842V7.10526C4.71429 7.32895 4.78971 7.51632 4.94057 7.66737C5.0909 7.81895 5.27738 7.89474 5.5 7.89474Z" fill="black"/>
</svg>
