<svg width="35" height="35" viewBox="0 0 35 35" fill="none" xmlns="http://www.w3.org/2000/svg">
<path d="M16.3511 32.8114C16.9555 32.8114 17.4454 33.3013 17.4454 33.9057C17.4454 34.5101 16.9555 35 16.3511 35C15.7468 35 15.2568 34.5101 15.2568 33.9057C15.2568 33.3013 15.7468 32.8114 16.3511 32.8114ZM22.9169 32.8114C23.5213 32.8114 24.0112 33.3013 24.0112 33.9057C24.0112 34.5101 23.5213 35 22.9169 35C22.3125 35 21.8226 34.5101 21.8226 33.9057C21.8226 33.3013 22.3125 32.8114 22.9169 32.8114ZM13.0682 30.6228C13.6726 30.6228 14.1625 31.1127 14.1625 31.7171C14.1625 32.3215 13.6726 32.8114 13.0682 32.8114C12.4639 32.8114 11.974 32.3215 11.974 31.7171C11.974 31.1127 12.4639 30.6228 13.0682 30.6228ZM19.634 30.6228C20.2384 30.6228 20.7283 31.1127 20.7283 31.7171C20.7283 32.3215 20.2384 32.8114 19.634 32.8114C19.0297 32.8114 18.5397 32.3215 18.5397 31.7171C18.5397 31.1127 19.0297 30.6228 19.634 30.6228ZM26.1998 30.6228C26.8042 30.6228 27.2941 31.1127 27.2941 31.7171C27.2941 32.3215 26.8042 32.8114 26.1998 32.8114C25.5954 32.8114 25.1055 32.3215 25.1055 31.7171C25.1055 31.1127 25.5954 30.6228 26.1998 30.6228ZM19.634 8.73689C25.028 8.73689 28.0878 12.1809 28.5329 16.34L28.669 16.34C32.1402 16.34 34.9542 19.0474 34.9542 22.3871C34.9542 25.7268 32.1402 28.4342 28.669 28.4342H10.5991C7.12785 28.4342 4.31388 25.7268 4.31388 22.3871C4.31388 19.0474 7.12785 16.34 10.5991 16.34L10.7352 16.34C11.1828 12.1535 14.2401 8.73689 19.634 8.73689ZM19.634 10.9255C16.0241 10.9255 12.8776 13.7057 12.8776 17.5459C12.8776 18.1543 12.3217 18.6318 11.6852 18.6318L10.4817 18.6317C8.28405 18.6317 6.50247 20.3362 6.50247 22.4387C6.50247 24.5412 8.28405 26.2456 10.4817 26.2456H28.7863C30.984 26.2456 32.7656 24.5412 32.7656 22.4387C32.7656 20.3362 30.984 18.6317 28.7864 18.6317L27.5828 18.6318C26.9463 18.6318 26.3904 18.1543 26.3904 17.5459C26.3904 13.6564 23.244 10.9255 19.634 10.9255ZM3.88322 14.6479C4.05812 15.1558 3.83757 15.7043 3.38506 15.9581L3.20481 16.0388L1.45086 16.6428C0.879426 16.8395 0.256678 16.5358 0.0599168 15.9643C-0.114982 15.4564 0.105572 14.9079 0.558081 14.6541L0.738326 14.5734L2.49228 13.9695C3.06371 13.7727 3.68646 14.0764 3.88322 14.6479ZM15.0802 5.45451C15.8079 5.80946 16.4488 6.27117 16.9931 6.81158C16.1038 6.99352 15.2727 7.27062 14.506 7.63188C14.3842 7.55735 14.2546 7.48688 14.1208 7.42161C11.6437 6.21344 8.65615 7.24212 7.44798 9.71923C6.60578 11.446 6.85054 13.4208 7.91519 14.868C7.19302 15.083 6.5138 15.3956 5.89198 15.7888C4.58526 13.7502 4.34093 11.0971 5.48089 8.75982C7.21892 5.19631 11.5167 3.71648 15.0802 5.45451ZM1.94105 5.82556L2.12557 5.89594L3.79284 6.70913C4.33604 6.97406 4.56162 7.62918 4.29668 8.17238C4.06118 8.65522 3.51739 8.88711 3.01795 8.7466L2.83343 8.67622L1.16615 7.86304C0.622954 7.5981 0.397378 6.94298 0.662313 6.39978C0.897811 5.91694 1.4416 5.68506 1.94105 5.82556ZM17.4217 0.629049C17.9046 0.864547 18.1365 1.40834 17.996 1.90778L17.9256 2.0923L17.1124 3.75958C16.8475 4.30278 16.1923 4.52835 15.6491 4.26342C15.1663 4.02792 14.9344 3.48413 15.0749 2.98469L15.1453 2.80016L15.9585 1.13289C16.2234 0.589691 16.8785 0.364114 17.4217 0.629049ZM9.12726 0.558081L9.20797 0.738326L9.8119 2.49228C10.0087 3.06371 9.70493 3.68646 9.13349 3.88322C8.62555 4.05812 8.07707 3.83757 7.82326 3.38506L7.74255 3.20481L7.13862 1.45086C6.94185 0.879426 7.24559 0.256678 7.81703 0.0599168C8.32497 -0.114982 8.87345 0.105572 9.12726 0.558081Z" fill="#FFFEFE"/>
</svg>
