<svg width="25" height="35" viewBox="0 0 25 35" fill="none" xmlns="http://www.w3.org/2000/svg">
<path d="M24.4584 12.375C24.4584 5.7706 19.1045 0.416687 12.5001 0.416687C5.89567 0.416687 0.541748 5.7706 0.541748 12.375C0.541748 14.7445 1.24216 16.9482 2.42946 18.8069H2.41579C6.44746 25.1192 12.5001 34.5834 12.5001 34.5834L22.5844 18.8069H22.5724C23.758 16.9482 24.4584 14.7445 24.4584 12.375ZM12.5001 17.5C9.66937 17.5 7.37508 15.2057 7.37508 12.375C7.37508 9.54431 9.66937 7.25002 12.5001 7.25002C15.3308 7.25002 17.6251 9.54431 17.6251 12.375C17.6251 15.2057 15.3308 17.5 12.5001 17.5Z" fill="white"/>
</svg>
