<svg width="39" height="30" viewBox="0 0 39 30" fill="none" xmlns="http://www.w3.org/2000/svg">
<path d="M21.9375 7.3125C27.9449 7.3125 31.3528 11.1482 31.8484 15.7804L32 15.7803C35.866 15.7803 39 18.7956 39 22.5152C39 26.2347 35.866 29.25 32 29.25H11.875C8.00901 29.25 4.875 26.2347 4.875 22.5152C4.875 18.7956 8.00901 15.7803 11.875 15.7803L12.0266 15.7804C12.5251 11.1177 15.9301 7.3125 21.9375 7.3125ZM21.9375 9.75C17.917 9.75 14.4127 12.8464 14.4127 17.1233C14.4127 17.801 13.7936 18.3328 13.0847 18.3327L11.7443 18.3327C9.29669 18.3327 7.3125 20.231 7.3125 22.5726C7.3125 24.9142 9.29669 26.8125 11.7443 26.8125H32.1307C34.5783 26.8125 36.5625 24.9142 36.5625 22.5726C36.5625 20.231 34.5783 18.3327 32.1307 18.3327L30.7903 18.3327C30.0814 18.3328 29.4623 17.801 29.4623 17.1233C29.4623 12.7915 25.958 9.75 21.9375 9.75ZM15.5803 0C19.1306 0 22.2246 2.01844 23.7532 4.98443C23.1669 4.91177 22.5612 4.875 21.9375 4.875C21.4904 4.875 21.0527 4.89375 20.6248 4.93055C19.4317 3.40395 17.5832 2.4375 15.5391 2.4375C12.381 2.4375 9.68987 4.74432 9.1508 7.86093L9.06224 8.37293C8.86012 9.54152 7.84626 10.395 6.66033 10.395L6.02949 10.395C4.04567 10.395 2.4375 12.024 2.4375 14.0334C2.4375 15.4216 3.20492 16.6281 4.33346 17.2416C3.81244 17.9039 3.38242 18.644 3.06473 19.44C1.22664 18.3182 0 16.2935 0 13.9823C0 10.5879 2.64585 7.81151 5.9877 7.60296L6.53034 7.59039C7.2883 3.26428 11.0653 0 15.5803 0Z" fill="#FFFEFE"/>
</svg>
