<svg width="81" height="81" viewBox="0 0 81 81" fill="none" xmlns="http://www.w3.org/2000/svg">
<path d="M40.4078 0.00126201C39.5288 0.0253062 38.6938 0.391466 38.0807 1.0218C37.4676 1.65214 37.1248 2.49688 37.1251 3.37621V10.1261C37.1247 10.5696 37.2117 11.0088 37.3811 11.4186C37.5506 11.8284 37.7991 12.2008 38.1125 12.5145C38.426 12.8282 38.7981 13.0771 39.2078 13.2469C39.6175 13.4167 40.0566 13.5041 40.5 13.5041C40.9435 13.5041 41.3826 13.4167 41.7923 13.2469C42.2019 13.0771 42.5741 12.8282 42.8876 12.5145C43.201 12.2008 43.4495 11.8284 43.619 11.4186C43.7884 11.0088 43.8754 10.5696 43.875 10.1261V3.37621C43.8752 2.92513 43.7849 2.4786 43.6096 2.063C43.4342 1.6474 43.1773 1.27116 42.8541 0.956533C42.5309 0.641903 42.1478 0.395262 41.7277 0.231186C41.3075 0.0671099 40.8587 -0.0110722 40.4078 0.00126201ZM14.1992 10.8776C13.5361 10.8877 12.8908 11.093 12.3437 11.4678C11.7966 11.8425 11.3721 12.3702 11.1232 12.9848C10.8742 13.5994 10.8119 14.2738 10.944 14.9236C11.076 15.5735 11.3966 16.17 11.8657 16.6387L16.6381 21.4243C17.1096 21.9003 17.7124 22.2249 18.3693 22.3566C19.0263 22.4882 19.7076 22.421 20.3261 22.1634C20.9447 21.9058 21.4723 21.4695 21.8416 20.9105C22.2109 20.3514 22.4051 19.6949 22.3993 19.0249C22.3956 18.1344 22.0402 17.2815 21.4105 16.6519L16.6381 11.8663C16.3185 11.5465 15.938 11.2942 15.519 11.1244C15.1 10.9545 14.6512 10.8706 14.1992 10.8776ZM66.6295 10.8776C65.7761 10.9096 64.9662 11.2627 64.362 11.8663L59.5896 16.6387C59.2572 16.9477 58.9906 17.3205 58.8055 17.7349C58.6205 18.1492 58.5208 18.5966 58.5126 19.0503C58.5043 19.5041 58.5876 19.9548 58.7574 20.3756C58.9273 20.7965 59.1802 21.1787 59.5011 21.4996C59.8219 21.8205 60.2042 22.0734 60.625 22.2433C61.0459 22.4131 61.4966 22.4964 61.9503 22.4881C62.404 22.4798 62.8515 22.3802 63.2658 22.1952C63.6802 22.0101 64.053 21.7434 64.362 21.4111L69.1344 16.6387C69.4501 16.3264 69.7012 15.9549 69.8731 15.5455C70.0451 15.136 70.1345 14.6966 70.1363 14.2525C70.1348 13.7985 70.042 13.3495 69.8636 12.9321C69.6851 12.5146 69.4246 12.1373 69.0975 11.8225C68.7704 11.5077 68.3834 11.2618 67.9594 11.0995C67.5355 10.9372 67.0832 10.8617 66.6295 10.8776ZM40.21 20.2509C36.2301 20.3081 32.3554 21.537 29.0699 23.7839C25.7845 26.0308 23.2341 29.1961 21.7374 32.8843C20.2407 36.5725 19.8642 40.62 20.6549 44.521C21.4455 48.422 23.3683 52.0034 26.1829 54.8178C29.9988 58.5237 35.1196 60.5793 40.4387 60.5405C45.7579 60.5016 50.8481 58.3713 54.6094 54.61C58.3707 50.8487 60.501 45.7585 60.5399 40.4393C60.5788 35.1202 58.5231 29.9994 54.8172 26.1835C52.9028 24.2681 50.6237 22.7562 48.1147 21.7372C45.6057 20.7182 42.9178 20.2128 40.21 20.2509ZM3.37562 37.1257C2.93236 37.1256 2.49342 37.2128 2.08388 37.3824C1.67433 37.552 1.3022 37.8005 0.988738 38.1139C0.675274 38.4273 0.426617 38.7994 0.256967 39.2089C0.0873182 39.6185 0 40.0574 0 40.5006C0 40.9439 0.0873182 41.3828 0.256967 41.7923C0.426617 42.2018 0.675274 42.5739 0.988738 42.8873C1.3022 43.2007 1.67433 43.4493 2.08388 43.6189C2.49342 43.7884 2.93236 43.8757 3.37562 43.8756H10.1255C11.9952 43.8756 13.5005 42.3704 13.5005 40.5006C13.5005 38.6309 11.9952 37.1257 10.1255 37.1257H3.37562ZM70.8746 37.1257C70.4311 37.1253 69.992 37.2124 69.5822 37.3818C69.1725 37.5513 68.8001 37.7998 68.4864 38.1133C68.1728 38.4267 67.9239 38.7989 67.7542 39.2085C67.5844 39.6181 67.497 40.0572 67.497 40.5006C67.497 40.9441 67.5844 41.3831 67.7542 41.7928C67.9239 42.2024 68.1728 42.5746 68.4864 42.888C68.8001 43.2014 69.1725 43.45 69.5822 43.6194C69.992 43.7889 70.4311 43.8759 70.8746 43.8756H77.6245C79.4942 43.8756 80.9994 42.3704 80.9994 40.5006C80.9994 38.6309 79.4942 37.1257 77.6245 37.1257H70.8746ZM18.932 58.6014C18.0691 58.6255 17.2481 58.9793 16.6381 59.5902L11.8657 64.3626C11.5519 64.6758 11.3029 65.0479 11.133 65.4574C10.9631 65.8669 10.8755 66.3059 10.8753 66.7493C10.8751 67.1927 10.9623 67.6318 11.1319 68.0415C11.3015 68.4512 11.5502 68.8234 11.8637 69.137C12.1772 69.4505 12.5495 69.6992 12.9592 69.8688C13.3688 70.0384 13.8079 70.1255 14.2513 70.1254C14.6947 70.1252 15.1337 70.0376 15.5433 69.8677C15.9528 69.6977 16.3248 69.4487 16.6381 69.1349L21.4105 64.3626C21.7245 64.0497 21.9735 63.6778 22.1432 63.2682C22.3129 62.8587 22.3999 62.4197 22.3993 61.9764C22.3994 61.5253 22.3092 61.0788 22.1338 60.6632C21.9585 60.2476 21.7016 59.8713 21.3784 59.5567C21.0551 59.2421 20.6721 58.9954 20.2519 58.8313C19.8317 58.6673 19.3829 58.5891 18.932 58.6014ZM61.9362 58.6014C61.2721 58.609 60.6249 58.8125 60.0759 59.1863C59.5268 59.56 59.1003 60.0876 58.8497 60.7027C58.5991 61.3178 58.5357 61.9932 58.6673 62.6443C58.7989 63.2953 59.1198 63.8931 59.5896 64.3626L64.362 69.1349C64.6749 69.4491 65.0468 69.6983 65.4563 69.8684C65.8657 70.0385 66.3048 70.126 66.7482 70.126C67.1916 70.126 67.6306 70.0385 68.0401 69.8684C68.4496 69.6983 68.8214 69.4491 69.1344 69.1349C69.4501 68.8227 69.7012 68.4512 69.8731 68.0417C70.0451 67.6322 70.1345 67.1929 70.1363 66.7488C70.1312 65.8521 69.7709 64.9941 69.1344 64.3626L64.362 59.5902C64.044 59.272 63.6655 59.0206 63.249 58.8508C62.8324 58.681 62.3861 58.5962 61.9362 58.6014ZM40.4078 67.5002C39.5288 67.5243 38.6938 67.8904 38.0807 68.5208C37.4676 69.1511 37.1248 69.9958 37.1251 70.8752V77.6251C37.1251 78.0683 37.2124 78.5071 37.382 78.9166C37.5516 79.3261 37.8002 79.6981 38.1136 80.0115C38.427 80.3249 38.799 80.5735 39.2085 80.7431C39.618 80.9127 40.0568 81 40.5 81C40.9432 81 41.3821 80.9127 41.7916 80.7431C42.201 80.5735 42.5731 80.3249 42.8865 80.0115C43.1999 79.6981 43.4485 79.3261 43.6181 78.9166C43.7877 78.5071 43.875 78.0683 43.875 77.6251V70.8752C43.8752 70.4241 43.7849 69.9775 43.6096 69.5619C43.4342 69.1463 43.1773 68.7701 42.8541 68.4555C42.5309 68.1409 42.1478 67.8942 41.7277 67.7301C41.3075 67.5661 40.8587 67.4879 40.4078 67.5002Z" fill="white"/>
</svg>
