<svg width="28" height="31" viewBox="0 0 28 31" fill="none" xmlns="http://www.w3.org/2000/svg">
<path d="M26.9994 21.5063L24.8203 20.2378C25.2146 19.8286 25.6669 19.4804 26.1624 19.2045C26.4863 19.0205 26.7249 18.7149 26.8264 18.3544C26.9278 17.9939 26.8838 17.6076 26.704 17.2796C26.5241 16.9517 26.223 16.7086 25.8661 16.6033C25.5092 16.4979 25.1255 16.539 24.7985 16.7174C23.8525 17.2451 23.0141 17.9485 22.3278 18.7905L16.6808 15.5L22.3265 12.2153C23.0127 13.0575 23.851 13.761 24.7972 14.2884C24.9594 14.3806 25.1381 14.4394 25.323 14.4616C25.5078 14.4838 25.6952 14.4689 25.8743 14.4177C26.0535 14.3665 26.2207 14.2801 26.3665 14.1634C26.5123 14.0468 26.6338 13.9021 26.7238 13.7379C26.8139 13.5737 26.8707 13.3932 26.8912 13.2067C26.9116 13.0202 26.8952 12.8315 26.8429 12.6515C26.7906 12.4714 26.7034 12.3036 26.5863 12.1577C26.4693 12.0118 26.3248 11.8906 26.1611 11.8013C25.6657 11.5253 25.2135 11.1771 24.819 10.768L26.9981 9.49957C27.1648 9.40977 27.3118 9.28712 27.4305 9.1389C27.5492 8.99069 27.6372 8.81993 27.6891 8.6368C27.741 8.45366 27.7558 8.26188 27.7327 8.07285C27.7096 7.88381 27.649 7.70139 27.5545 7.53643C27.4601 7.37146 27.3337 7.22732 27.1828 7.11257C27.032 6.99782 26.8597 6.9148 26.6764 6.86845C26.4931 6.8221 26.3024 6.81337 26.1157 6.84277C25.9289 6.87217 25.7499 6.9391 25.5894 7.03959L23.4103 8.30736C23.2551 7.75836 23.1813 7.18926 23.1911 6.6185C23.1952 6.43159 23.1626 6.24569 23.0953 6.07148C23.0279 5.89727 22.9271 5.73817 22.7986 5.6033C22.6702 5.46842 22.5165 5.36043 22.3465 5.2855C22.1765 5.21058 21.9936 5.17019 21.8081 5.16667H21.7818C21.4123 5.1666 21.0576 5.31266 20.7939 5.57342C20.5303 5.83418 20.3787 6.1888 20.3718 6.56102C20.3519 7.64982 20.5368 8.73257 20.9166 9.75209L15.2708 13.0387V6.46996C16.3376 6.29231 17.3612 5.91253 18.2876 5.35073C18.6079 5.15624 18.8384 4.84148 18.9284 4.47571C19.0185 4.10993 18.9606 3.7231 18.7676 3.40031C18.5746 3.07753 18.2622 2.84522 17.8993 2.7545C17.5363 2.66379 17.1524 2.72209 16.8321 2.91658C16.3465 3.21068 15.8204 3.43071 15.2708 3.56952V1.42083C15.2708 1.04401 15.1223 0.682611 14.8579 0.416153C14.5934 0.149695 14.2348 0 13.8608 0C13.4869 0 13.1283 0.149695 12.8638 0.416153C12.5994 0.682611 12.4509 1.04401 12.4509 1.42083V3.56952C11.9013 3.43071 11.3752 3.21068 10.8896 2.91658C10.731 2.82028 10.5551 2.7564 10.372 2.72859C10.1889 2.70078 10.0022 2.70959 9.82244 2.7545C9.64271 2.79942 9.47351 2.87957 9.32452 2.99038C9.17553 3.10119 9.04966 3.24049 8.95409 3.40031C8.85852 3.56014 8.79513 3.73737 8.76753 3.92189C8.73993 4.10641 8.74867 4.29459 8.79325 4.47571C8.83782 4.65682 8.91736 4.82731 9.02732 4.97745C9.13729 5.12759 9.27552 5.25443 9.43413 5.35073C10.3605 5.91253 11.3841 6.29231 12.4509 6.46996V13.0387L6.80514 9.75209C7.18552 8.73225 7.3708 7.64905 7.35119 6.55973C7.34431 6.18751 7.19272 5.83288 6.92904 5.57213C6.66536 5.31137 6.31065 5.16531 5.9412 5.16538H5.91364C5.72847 5.16882 5.54579 5.209 5.37603 5.2836C5.20626 5.35821 5.05275 5.46578 4.92426 5.60018C4.79576 5.73458 4.6948 5.89318 4.62714 6.06691C4.55948 6.24064 4.52645 6.4261 4.52993 6.61269C4.54027 7.18428 4.46662 7.75426 4.31139 8.30413L2.13231 7.03959C1.97185 6.94313 1.79396 6.87978 1.60898 6.8532C1.424 6.82663 1.23563 6.83737 1.05481 6.8848C0.873989 6.93223 0.704326 7.0154 0.555682 7.12948C0.407037 7.24356 0.282376 7.38627 0.188944 7.54933C0.095511 7.71238 0.0351705 7.89252 0.0114289 8.07928C-0.0123127 8.26604 0.00101802 8.45569 0.0506465 8.63721C0.100275 8.81873 0.185212 8.9885 0.300519 9.13665C0.415827 9.2848 0.559206 9.40839 0.722325 9.50021L2.9014 10.7686C2.50695 11.1777 2.05472 11.5259 1.55934 11.802C1.39563 11.8913 1.25109 12.0124 1.13407 12.1583C1.01705 12.3042 0.929862 12.4721 0.877544 12.6521C0.825226 12.8322 0.808811 13.0209 0.829247 13.2074C0.849683 13.3938 0.906565 13.5744 0.99661 13.7386C1.08666 13.9028 1.20808 14.0474 1.35388 14.1641C1.49968 14.2807 1.66696 14.3672 1.84608 14.4183C2.02519 14.4695 2.21259 14.4844 2.39746 14.4623C2.58233 14.4401 2.76101 14.3812 2.92319 14.2891C3.86925 13.7614 4.70758 13.058 5.39387 12.2159L11.0409 15.5L5.39515 18.7847C4.70886 17.9427 3.87053 17.2393 2.92447 16.7116C2.76229 16.6195 2.58361 16.5606 2.39874 16.5384C2.21387 16.5162 2.02647 16.5311 1.84736 16.5823C1.66824 16.6335 1.50096 16.7199 1.35516 16.8366C1.20936 16.9533 1.08794 17.0979 0.997892 17.2621C0.907847 17.4263 0.850965 17.6068 0.830529 17.7933C0.810093 17.9798 0.826508 18.1685 0.878826 18.3485C0.931144 18.5286 1.01833 18.6964 1.13535 18.8423C1.25237 18.9882 1.39691 19.1094 1.56063 19.1987C2.056 19.4747 2.50823 19.8229 2.90268 20.232L0.722325 21.5063C0.559206 21.5981 0.415827 21.7217 0.300519 21.8698C0.185212 22.018 0.100275 22.1877 0.0506465 22.3693C0.00101802 22.5508 -0.0123127 22.7404 0.0114289 22.9272C0.0351705 23.114 0.095511 23.2941 0.188944 23.4571C0.282376 23.6202 0.407037 23.7629 0.555682 23.877C0.704326 23.9911 0.873989 24.0742 1.05481 24.1217C1.23563 24.1691 1.424 24.1798 1.60898 24.1533C1.79396 24.1267 1.97185 24.0633 2.13231 23.9669L4.31139 22.6991C4.46659 23.2481 4.54045 23.8172 4.53057 24.388C4.52405 24.7644 4.66604 25.128 4.92536 25.399C5.18468 25.67 5.54012 25.8262 5.91364 25.8333H5.93992C6.30936 25.8334 6.66407 25.6874 6.92776 25.4266C7.19144 25.1658 7.34302 24.8112 7.34991 24.439C7.36977 23.3502 7.18492 22.2674 6.80514 21.2479L12.4509 17.9613V24.5301C11.3841 24.7077 10.3605 25.0875 9.43413 25.6493C9.1138 25.8438 8.88327 26.1585 8.79325 26.5243C8.70322 26.8901 8.76108 27.2769 8.95409 27.5997C9.1471 27.9225 9.45945 28.1548 9.82244 28.2455C10.1854 28.3362 10.5693 28.2779 10.8896 28.0834C11.3752 27.7893 11.9013 27.5693 12.4509 27.4305V29.5792C12.4509 29.956 12.5994 30.3174 12.8638 30.5839C13.1283 30.8503 13.4869 31 13.8608 31C14.2348 31 14.5934 30.8503 14.8579 30.5839C15.1223 30.3174 15.2708 29.956 15.2708 29.5792V27.4305C15.8204 27.5693 16.3465 27.7893 16.8321 28.0834C17.1524 28.2779 17.5363 28.3362 17.8993 28.2455C18.2622 28.1548 18.5746 27.9225 18.7676 27.5997C18.9606 27.2769 19.0185 26.8901 18.9284 26.5243C18.8384 26.1585 18.6079 25.8438 18.2876 25.6493C17.3612 25.0875 16.3376 24.7077 15.2708 24.5301V17.9613L20.9166 21.2479C20.5362 22.2678 20.3509 23.351 20.3705 24.4403C20.3774 24.8125 20.529 25.1671 20.7927 25.4279C21.0563 25.6887 21.4111 25.8347 21.7805 25.8346H21.8081C21.9932 25.8312 22.1759 25.791 22.3457 25.7164C22.5154 25.6418 22.6689 25.5342 22.7974 25.3998C22.9259 25.2654 23.0269 25.1068 23.0946 24.9331C23.1622 24.7594 23.1952 24.5739 23.1918 24.3873C23.1814 23.8157 23.2551 23.2458 23.4103 22.6959L25.5894 23.9637C25.7498 24.0675 25.9295 24.1374 26.1176 24.1693C26.3056 24.2011 26.4982 24.1942 26.6835 24.1489C26.8688 24.1036 27.0431 24.0209 27.1958 23.9058C27.3485 23.7907 27.4764 23.6456 27.5719 23.4793C27.6673 23.3129 27.7283 23.1288 27.7511 22.938C27.7739 22.7472 27.7581 22.5538 27.7045 22.3693C27.651 22.1849 27.5609 22.0133 27.4397 21.865C27.3185 21.7166 27.1687 21.5946 26.9994 21.5063Z" fill="white"/>
</svg>
